<svg width="158" height="32" viewBox="0 0 158 32" fill="none" xmlns="http://www.w3.org/2000/svg">
<path d="M6.02 22.517L0.539 16.55L6.02 10.583H11.825L6.317 16.55L11.825 22.517H6.02ZM25.8321 0.349999L18.5961 31.049H14.1411L21.3771 0.349999H25.8321ZM32.3965 13.445C32.9365 12.617 33.6115 11.969 34.4215 11.501C35.2315 11.015 36.1315 10.772 37.1215 10.772V15.659H35.8525C34.7005 15.659 33.8365 15.911 33.2605 16.415C32.6845 16.901 32.3965 17.765 32.3965 19.007V26H27.7795V10.934H32.3965V13.445ZM53.5303 18.224C53.5303 18.656 53.5033 19.106 53.4493 19.574H43.0003C43.0723 20.51 43.3693 21.23 43.8913 21.734C44.4313 22.22 45.0883 22.463 45.8623 22.463C47.0143 22.463 47.8153 21.977 48.2653 21.005H53.1793C52.9273 21.995 52.4683 22.886 51.8023 23.678C51.1543 24.47 50.3353 25.091 49.3453 25.541C48.3553 25.991 47.2483 26.216 46.0243 26.216C44.5483 26.216 43.2343 25.901 42.0823 25.271C40.9303 24.641 40.0303 23.741 39.3823 22.571C38.7343 21.401 38.4103 20.033 38.4103 18.467C38.4103 16.901 38.7253 15.533 39.3553 14.363C40.0033 13.193 40.9033 12.293 42.0553 11.663C43.2073 11.033 44.5303 10.718 46.0243 10.718C47.4823 10.718 48.7783 11.024 49.9123 11.636C51.0463 12.248 51.9283 13.121 52.5583 14.255C53.2063 15.389 53.5303 16.712 53.5303 18.224ZM48.8053 17.009C48.8053 16.217 48.5353 15.587 47.9953 15.119C47.4553 14.651 46.7803 14.417 45.9703 14.417C45.1963 14.417 44.5393 14.642 43.9993 15.092C43.4773 15.542 43.1533 16.181 43.0273 17.009H48.8053ZM60.583 13.067C61.015 12.365 61.636 11.798 62.446 11.366C63.256 10.934 64.183 10.718 65.227 10.718C66.469 10.718 67.594 11.033 68.602 11.663C69.61 12.293 70.402 13.193 70.978 14.363C71.572 15.533 71.869 16.892 71.869 18.44C71.869 19.988 71.572 21.356 70.978 22.544C70.402 23.714 69.61 24.623 68.602 25.271C67.594 25.901 66.469 26.216 65.227 26.216C64.165 26.216 63.238 26.009 62.446 25.595C61.654 25.163 61.033 24.596 60.583 23.894V26H55.966V6.02H60.583V13.067ZM67.171 18.44C67.171 17.288 66.847 16.388 66.199 15.74C65.569 15.074 64.786 14.741 63.85 14.741C62.932 14.741 62.149 15.074 61.501 15.74C60.871 16.406 60.556 17.315 60.556 18.467C60.556 19.619 60.871 20.528 61.501 21.194C62.149 21.86 62.932 22.193 63.85 22.193C64.768 22.193 65.551 21.86 66.199 21.194C66.847 20.51 67.171 19.592 67.171 18.44ZM81.1492 26.216C79.6732 26.216 78.3412 25.901 77.1532 25.271C75.9832 24.641 75.0562 23.741 74.3722 22.571C73.7062 21.401 73.3732 20.033 73.3732 18.467C73.3732 16.919 73.7152 15.56 74.3992 14.39C75.0832 13.202 76.0192 12.293 77.2072 11.663C78.3952 11.033 79.7272 10.718 81.2032 10.718C82.6792 10.718 84.0112 11.033 85.1992 11.663C86.3872 12.293 87.3232 13.202 88.0072 14.39C88.6912 15.56 89.0332 16.919 89.0332 18.467C89.0332 20.015 88.6822 21.383 87.9802 22.571C87.2962 23.741 86.3512 24.641 85.1452 25.271C83.9572 25.901 82.6252 26.216 81.1492 26.216ZM81.1492 22.22C82.0312 22.22 82.7782 21.896 83.3902 21.248C84.0202 20.6 84.3352 19.673 84.3352 18.467C84.3352 17.261 84.0292 16.334 83.4172 15.686C82.8232 15.038 82.0852 14.714 81.2032 14.714C80.3032 14.714 79.5562 15.038 78.9622 15.686C78.3682 16.316 78.0712 17.243 78.0712 18.467C78.0712 19.673 78.3592 20.6 78.9352 21.248C79.5292 21.896 80.2672 22.22 81.1492 22.22ZM98.3406 26.216C96.8646 26.216 95.5326 25.901 94.3446 25.271C93.1746 24.641 92.2476 23.741 91.5636 22.571C90.8976 21.401 90.5646 20.033 90.5646 18.467C90.5646 16.919 90.9066 15.56 91.5906 14.39C92.2746 13.202 93.2106 12.293 94.3986 11.663C95.5866 11.033 96.9186 10.718 98.3946 10.718C99.8706 10.718 101.203 11.033 102.391 11.663C103.579 12.293 104.515 13.202 105.199 14.39C105.883 15.56 106.225 16.919 106.225 18.467C106.225 20.015 105.874 21.383 105.172 22.571C104.488 23.741 103.543 24.641 102.337 25.271C101.149 25.901 99.8166 26.216 98.3406 26.216ZM98.3406 22.22C99.2226 22.22 99.9696 21.896 100.582 21.248C101.212 20.6 101.527 19.673 101.527 18.467C101.527 17.261 101.221 16.334 100.609 15.686C100.015 15.038 99.2766 14.714 98.3946 14.714C97.4946 14.714 96.7476 15.038 96.1536 15.686C95.5596 16.316 95.2626 17.243 95.2626 18.467C95.2626 19.673 95.5506 20.6 96.1266 21.248C96.7206 21.896 97.4586 22.22 98.3406 22.22ZM117.071 22.085V26H114.722C113.048 26 111.743 25.595 110.807 24.785C109.871 23.957 109.403 22.616 109.403 20.762V14.768H107.567V10.934H109.403V7.262H114.02V10.934H117.044V14.768H114.02V20.816C114.02 21.266 114.128 21.59 114.344 21.788C114.56 21.986 114.92 22.085 115.424 22.085H117.071ZM118.698 10.583V6.29H126.177V26H121.371V10.583H118.698ZM129.497 11.852C129.569 9.926 130.199 8.441 131.387 7.397C132.575 6.353 134.186 5.831 136.22 5.831C137.57 5.831 138.722 6.065 139.676 6.533C140.648 7.001 141.377 7.64 141.863 8.45C142.367 9.26 142.619 10.169 142.619 11.177C142.619 12.365 142.322 13.337 141.728 14.093C141.134 14.831 140.441 15.335 139.649 15.605V15.713C140.675 16.055 141.485 16.622 142.079 17.414C142.673 18.206 142.97 19.223 142.97 20.465C142.97 21.581 142.709 22.571 142.187 23.435C141.683 24.281 140.936 24.947 139.946 25.433C138.974 25.919 137.813 26.162 136.463 26.162C134.303 26.162 132.575 25.631 131.279 24.569C130.001 23.507 129.326 21.905 129.254 19.763H133.736C133.754 20.555 133.979 21.185 134.411 21.653C134.843 22.103 135.473 22.328 136.301 22.328C137.003 22.328 137.543 22.13 137.921 21.734C138.317 21.32 138.515 20.78 138.515 20.114C138.515 19.25 138.236 18.629 137.678 18.251C137.138 17.855 136.265 17.657 135.059 17.657H134.195V13.904H135.059C135.977 13.904 136.715 13.751 137.273 13.445C137.849 13.121 138.137 12.554 138.137 11.744C138.137 11.096 137.957 10.592 137.597 10.232C137.237 9.872 136.742 9.692 136.112 9.692C135.428 9.692 134.915 9.899 134.573 10.313C134.249 10.727 134.06 11.24 134.006 11.852H129.497ZM146.169 10.583H151.974L157.455 16.55L151.974 22.517H146.169L151.677 16.55L146.169 10.583Z" fill="#5E3AEE"/>
</svg>
